<?xml version="1.0" standalone="no"?>
<!DOCTYPE svg PUBLIC "-//W3C//DTD SVG 20010904//EN"
 "http://www.w3.org/TR/2001/REC-SVG-20010904/DTD/svg10.dtd">
<svg version="1.0" xmlns="http://www.w3.org/2000/svg"
 width="1920.000000pt" height="1175.000000pt" viewBox="0 0 1920.000000 1175.000000"
 preserveAspectRatio="xMidYMid meet">

<g transform="translate(0.000000,1175.000000) scale(0.100000,-0.100000)"
fill="#000000" stroke="none">
<path d="M14595 5933 c-126 -26 -229 -77 -400 -196 -78 -55 -826 -568 -1080
-742 -49 -34 -291 -199 -536 -368 -246 -169 -458 -311 -472 -316 -49 -19 -60
-8 -391 404 -323 402 -360 439 -502 510 -125 62 -191 73 -578 95 -193 11 -630
36 -971 55 -341 20 -665 38 -720 40 -55 3 -370 21 -700 40 -330 19 -649 36
-710 39 -118 6 -898 51 -2033 117 -769 44 -762 44 -859 -11 -55 -31 -102 -84
-464 -515 -436 -520 -560 -664 -591 -690 -42 -36 -122 -73 -173 -81 -23 -3
-167 4 -320 15 -154 11 -400 28 -548 38 l-267 17 -44 -21 c-24 -12 -57 -39
-73 -59 l-28 -38 3 -245 c1 -135 20 -668 42 -1184 22 -516 40 -993 40 -1061 0
-142 15 -204 63 -268 41 -53 123 -104 191 -117 33 -7 258 -8 636 -3 l584 7 3
80 c10 229 97 477 232 655 117 156 308 306 483 382 256 110 558 126 815 42
461 -151 793 -566 820 -1026 l6 -108 336 0 c185 0 748 5 1251 10 503 5 1540
14 2304 20 764 5 1391 11 1393 13 2 2 8 42 13 88 59 480 393 864 858 986 115
30 326 42 438 24 329 -51 613 -232 793 -506 104 -158 160 -316 186 -527 l6
-48 47 0 c26 1 406 5 845 10 l799 8 56 29 c64 32 109 92 122 164 4 22 6 314 3
647 -4 546 -6 615 -23 683 -20 83 -77 229 -89 229 -5 0 -50 25 -102 57 -113
68 -162 90 -316 143 -252 87 -644 186 -1083 274 -281 57 -764 142 -970 171
-144 20 -147 21 -153 48 -5 23 -114 402 -122 424 -6 17 353 297 775 604 774
564 1276 855 1584 919 48 10 56 14 42 22 -63 35 -326 48 -451 21z m-1942
-1794 c32 -111 56 -203 53 -206 -2 -2 -55 3 -118 12 -62 9 -129 18 -148 20
-91 11 -264 36 -266 38 -2 3 410 336 416 337 3 0 31 -91 63 -201z"/>
<path d="M15598 5854 c-95 -23 -177 -70 -253 -148 -110 -111 -155 -220 -155
-376 0 -156 49 -278 156 -384 106 -107 228 -156 386 -156 208 0 393 116 482
303 60 127 71 237 36 371 -38 149 -133 269 -266 338 -127 67 -256 84 -386 52z"/>
<path d="M14955 5823 c-78 -41 -123 -119 -111 -194 9 -54 343 -784 386 -841
11 -15 33 -34 48 -42 52 -26 533 -187 542 -181 6 3 10 14 10 23 0 9 13 45 29
78 l29 62 -121 -5 c-208 -9 -326 36 -467 177 -127 127 -180 251 -180 422 0
117 16 186 66 286 l43 85 -19 36 c-10 20 -29 46 -42 58 -54 51 -153 68 -213
36z"/>
<path d="M16256 4924 c-258 -62 -424 -334 -363 -594 27 -114 29 -113 106 124
39 119 83 235 97 257 63 100 204 139 326 91 81 -33 151 -143 151 -237 0 -71
-241 -805 -283 -863 -33 -46 -80 -80 -157 -112 l-51 -22 -7 -61 c-9 -88 -15
-133 -26 -207 -12 -77 -4 -164 22 -241 l20 -57 -46 -203 c-63 -280 -139 -614
-180 -795 -35 -151 -42 -229 -26 -294 42 -169 264 -957 277 -983 32 -63 65
-96 125 -126 122 -61 259 -36 346 63 48 55 73 119 73 188 0 41 -134 557 -230
886 l-18 63 38 172 c78 349 129 574 150 664 l21 91 67 21 c145 44 270 160 318
293 42 119 77 408 77 643 1 203 -20 315 -109 583 -119 358 -167 457 -262 543
-126 112 -291 153 -456 113z"/>
<path d="M13715 4773 c-46 -24 -66 -45 -86 -88 -43 -94 -13 -191 75 -246 l29
-18 -41 -16 c-46 -19 -98 -72 -108 -111 -12 -48 2 -121 29 -158 33 -43 99 -69
162 -64 39 3 43 1 28 -9 -14 -11 -30 -15 -63 -15 -3 -1 -16 2 -31 5 -53 13
-81 -98 -36 -141 36 -34 92 -30 125 8 15 17 35 30 45 30 11 0 34 15 53 34 33
33 40 55 35 118 -2 27 -1 28 42 22 161 -22 274 159 184 294 -31 47 -96 82
-154 82 l-41 0 14 38 c7 20 13 51 13 67 1 64 -60 151 -122 174 -41 16 -117 13
-152 -6z m109 -398 c-18 -44 -18 -86 1 -132 19 -45 19 -49 -2 -32 -20 17 -43
71 -43 101 0 13 9 42 20 66 23 51 46 49 24 -3z"/>
<path d="M16263 4750 c-43 -10 -99 -53 -118 -91 -9 -16 -60 -165 -115 -332
-54 -166 -101 -309 -104 -317 -4 -8 -50 -34 -104 -56 -550 -235 -585 -253
-617 -314 -48 -93 -8 -217 86 -266 16 -8 40 -31 54 -51 14 -21 25 -34 25 -29
0 4 -10 22 -22 38 l-21 31 27 -5 c42 -8 78 4 331 114 482 209 504 220 535 251
26 27 50 92 157 417 132 402 141 446 110 506 -17 32 -61 76 -92 92 -30 15 -96
21 -132 12z"/>
<path d="M4705 2454 c-398 -62 -734 -368 -834 -760 -66 -256 -41 -487 79 -729
318 -643 1179 -773 1675 -254 150 157 244 345 276 551 17 109 7 332 -19 430
-77 288 -276 534 -539 667 -190 96 -417 129 -638 95z"/>
<path d="M12318 2455 c-502 -82 -868 -514 -868 -1024 0 -562 428 -1010 990
-1038 306 -15 590 101 804 327 267 283 350 673 225 1050 -109 331 -415 602
-763 676 -103 22 -284 26 -388 9z"/>
</g>
</svg>
